<svg width="71" height="16" viewBox="0 0 71 16" fill="none" xmlns="http://www.w3.org/2000/svg">
<path d="M36.9995 5.23381C36.6203 4.77884 36.1382 4.42042 35.5929 4.18812C34.9479 3.92454 34.2552 3.79738 33.5584 3.81465C33.045 3.7984 32.5343 3.89527 32.0626 4.09836C31.6479 4.28355 31.2836 4.56529 31.0004 4.91998H30.8659V1.19921C30.8631 1.06797 30.8324 0.938832 30.7758 0.820344C30.7192 0.701855 30.6381 0.596724 30.5378 0.511918C30.2955 0.295844 29.978 0.183183 29.6535 0.198088C29.3168 0.184742 28.9872 0.296561 28.7283 0.511918C28.632 0.598535 28.5554 0.704624 28.5034 0.823128C28.4514 0.941632 28.4252 1.06983 28.4267 1.19921V10.687C28.4217 11.2641 28.5284 11.8368 28.7409 12.3736C28.9434 12.8907 29.2605 13.3553 29.6686 13.7325C30.1003 14.1307 30.6095 14.4358 31.1645 14.6288C31.8658 14.8529 32.5997 14.9589 33.3359 14.9426C34.0488 14.9606 34.7574 14.8282 35.4156 14.5541C35.9849 14.3123 36.4952 13.9504 36.9115 13.4934C37.3035 13.0597 37.6037 12.5514 37.7939 11.9989C37.9868 11.3908 38.0825 10.7562 38.0774 10.1183V8.8046C38.0817 8.13161 37.986 7.46171 37.7933 6.81681C37.637 6.24153 37.3673 5.70316 37.0001 5.23321L36.9995 5.23381ZM35.5935 10.1183C35.6349 10.7846 35.421 11.4416 34.9952 11.9561C34.7936 12.1831 34.5441 12.3624 34.2647 12.4813C33.9852 12.6001 33.6828 12.6555 33.3793 12.6434C32.7653 12.6648 32.158 12.5092 31.6301 12.1953C31.3939 12.0494 31.2029 11.8408 31.0787 11.5927C30.9545 11.3446 30.9019 11.0668 30.9268 10.7906V8.31126C30.9123 8.00269 30.965 7.69464 31.0812 7.40835C31.1974 7.12207 31.3744 6.86435 31.6 6.65297C32.0241 6.31307 32.552 6.12854 33.0958 6.13012C33.4218 6.11595 33.7471 6.16975 34.051 6.28808C34.355 6.40641 34.6309 6.58669 34.8613 6.81741C35.3446 7.37416 35.5867 8.09976 35.5344 8.83471L35.5935 10.1183Z" fill="#D2D2D2"/>
<path d="M42.0717 3.81351C41.7342 3.79956 41.4035 3.91142 41.144 4.12734C41.0367 4.20822 40.9487 4.31176 40.8861 4.43057C40.8235 4.54938 40.788 4.68053 40.7821 4.81464V13.8994C40.788 14.0335 40.8235 14.1647 40.8861 14.2835C40.9487 14.4023 41.0367 14.5058 41.144 14.5867C41.4035 14.8026 41.7342 14.9145 42.0717 14.9005C42.3958 14.9151 42.7127 14.8025 42.9547 14.5867C43.0553 14.502 43.1366 14.3969 43.1934 14.2784C43.2502 14.1599 43.2811 14.0307 43.2841 13.8994V4.81464C43.2811 4.68331 43.2502 4.55411 43.1934 4.43561C43.1366 4.31712 43.0553 4.21204 42.9547 4.12734C42.7127 3.91157 42.3958 3.79893 42.0717 3.81351Z" fill="#D2D2D2"/>
<path d="M42.0717 0.00323055C41.7342 -0.0107198 41.4035 0.101136 41.144 0.31706C41.0359 0.397188 40.9473 0.500564 40.8847 0.619535C40.822 0.738505 40.787 0.870023 40.7821 1.00435V1.49768C40.787 1.63201 40.822 1.76353 40.8847 1.8825C40.9473 2.00147 41.0359 2.10485 41.144 2.18498C41.4035 2.4009 41.7342 2.51276 42.0717 2.4988C42.3953 2.51164 42.7114 2.39922 42.9541 2.18498C43.0544 2.10024 43.1355 1.9952 43.192 1.87682C43.2486 1.75844 43.2793 1.62942 43.2822 1.49829V0.990497C43.2793 0.859512 43.2486 0.730632 43.1922 0.612367C43.1357 0.494101 43.0548 0.389139 42.9547 0.30441C42.71 0.094589 42.3938 -0.0132414 42.0717 0.00323055Z" fill="#D2D2D2"/>
<path d="M54.9091 5.23388C54.5298 4.77891 54.0477 4.42049 53.5025 4.18819C52.8574 3.92461 52.1647 3.79745 51.468 3.81472C50.9545 3.79847 50.4438 3.89533 49.9721 4.09843C49.5574 4.28362 49.1932 4.56536 48.9099 4.92005H48.7748V1.19928C48.7719 1.068 48.7411 0.938827 48.6845 0.820335C48.6278 0.701844 48.5465 0.596738 48.4461 0.511987C48.2041 0.296212 47.8872 0.183571 47.5631 0.198158C47.2256 0.184208 46.8949 0.296063 46.6354 0.511987C46.5475 0.602669 46.4795 0.710581 46.4356 0.828888C46.3917 0.947196 46.3728 1.07332 46.3802 1.19928V10.687C46.3753 11.2642 46.482 11.8369 46.6945 12.3736C46.8971 12.8909 47.2145 13.3555 47.6228 13.7326C48.0545 14.1307 48.5637 14.4359 49.1186 14.6289C49.82 14.853 50.5538 14.959 51.29 14.9427C52.0029 14.9606 52.7116 14.8283 53.3698 14.5542C53.9391 14.3123 54.4494 13.9505 54.8656 13.4934C55.2577 13.0598 55.5578 12.5514 55.7481 11.999C55.9408 11.3909 56.0362 10.7562 56.031 10.1184V8.80467C56.0353 8.13168 55.9396 7.46178 55.7469 6.81688C55.577 6.23831 55.2921 5.6999 54.9091 5.23388ZM53.5031 10.1184C53.5402 10.7866 53.3208 11.4439 52.8896 11.9562C52.6881 12.1831 52.4386 12.3625 52.1591 12.4814C51.8797 12.6002 51.5773 12.6556 51.2738 12.6435C50.6597 12.6648 50.0525 12.5093 49.5246 12.1953C49.2883 12.0495 49.0974 11.8408 48.9732 11.5927C48.8489 11.3446 48.7964 11.0669 48.8213 10.7906V8.31133C48.8068 8.00276 48.8594 7.69471 48.9756 7.40842C49.0918 7.12214 49.2688 6.86442 49.4944 6.65304C49.9187 6.31301 50.4469 6.12847 50.9909 6.13019C51.3168 6.11602 51.6421 6.16982 51.9461 6.28815C52.2501 6.40648 52.526 6.58676 52.7563 6.81748C53.2396 7.37423 53.4817 8.09983 53.4295 8.83478L53.5031 10.1184Z" fill="#D2D2D2"/>
<path d="M59.9658 0.00244728C59.6283 -0.0115031 59.2977 0.100352 59.0382 0.316276C58.9301 0.396405 58.8415 0.499781 58.7788 0.618751C58.7162 0.737722 58.6811 0.869239 58.6763 1.00357V1.4969C58.6811 1.63123 58.7162 1.76275 58.7788 1.88172C58.8415 2.00069 58.9301 2.10406 59.0382 2.18419C59.2977 2.40012 59.6283 2.51197 59.9658 2.49802C60.2895 2.51086 60.6056 2.39843 60.8483 2.18419C60.9516 2.10092 61.0358 1.99646 61.0952 1.8779C61.1546 1.75933 61.1879 1.6294 61.1927 1.4969V0.990317C61.1897 0.859136 61.1589 0.730083 61.1022 0.611701C61.0455 0.49332 60.9643 0.388311 60.864 0.303627C60.6154 0.090097 60.2931 -0.017981 59.9658 0.00244728Z" fill="#D2D2D2"/>
<path d="M59.9658 3.81349C59.6283 3.79954 59.2977 3.91139 59.0382 4.12732C58.9309 4.20819 58.8428 4.31173 58.7803 4.43055C58.7177 4.54936 58.6822 4.6805 58.6763 4.81461V13.8994C58.6822 14.0335 58.7177 14.1646 58.7803 14.2835C58.8428 14.4023 58.9309 14.5058 59.0382 14.5867C59.2977 14.8026 59.6283 14.9145 59.9658 14.9005C60.2899 14.9151 60.6069 14.8025 60.8489 14.5867C60.9494 14.502 61.0308 14.3969 61.0876 14.2784C61.1444 14.1599 61.1753 14.0307 61.1782 13.8994V4.81461C61.1753 4.68328 61.1444 4.55408 61.0876 4.43559C61.0308 4.31709 60.9494 4.21201 60.8489 4.12732C60.607 3.91169 60.2897 3.79906 59.9658 3.81349Z" fill="#D2D2D2"/>
<path d="M70.4244 12.8088C70.3326 12.713 70.2203 12.639 70.096 12.5925C69.9716 12.546 69.8383 12.5281 69.706 12.5401C69.4775 12.5123 69.2464 12.5123 69.0178 12.5401C68.7792 12.569 68.538 12.569 68.2995 12.5401C68.1676 12.5492 68.0357 12.5253 67.9155 12.4705C67.7953 12.4157 67.6907 12.3317 67.6112 12.2263C67.4256 11.898 67.3278 11.5275 67.3271 11.1505V5.98046H68.9129C69.0327 5.98084 69.1513 5.95726 69.2619 5.91112C69.3724 5.86498 69.4726 5.79721 69.5565 5.7118C69.6522 5.61628 69.7269 5.50184 69.7759 5.37582C69.8248 5.24979 69.8468 5.11496 69.8406 4.97994C69.8433 4.85199 69.8195 4.72487 69.7706 4.60658C69.7217 4.48829 69.6488 4.3814 69.5565 4.29265C69.4726 4.20724 69.3724 4.13947 69.2619 4.09333C69.1513 4.04719 69.0327 4.02361 68.9129 4.02399H67.3271V1.84165V1.94766C67.3341 1.834 67.3067 1.72086 67.2485 1.62294C67.1903 1.52501 67.104 1.44682 67.0007 1.3985C66.8975 1.35019 66.7821 1.33399 66.6695 1.352C66.5569 1.37001 66.4523 1.4214 66.3693 1.49951L63.2274 4.99319C63.1503 5.07516 63.0993 5.17813 63.0809 5.28906C63.0625 5.39999 63.0774 5.51388 63.1239 5.61632C63.1703 5.71875 63.2462 5.80512 63.3418 5.86447C63.4374 5.92383 63.5485 5.9535 63.6611 5.94974H64.8879V11.0595C64.7804 12.1144 65.0507 13.1732 65.6509 14.0479C65.9665 14.3627 66.3463 14.6058 66.7646 14.7605C67.1829 14.9152 67.6297 14.9778 68.0745 14.9442C68.3982 14.9666 68.7231 14.9666 69.0468 14.9442C69.3252 14.9077 69.5971 14.8323 69.8544 14.7201C70.0748 14.6279 70.2698 14.4844 70.4232 14.3014C70.5687 14.1141 70.6429 13.8812 70.6325 13.6443C70.6555 13.4979 70.6488 13.3484 70.6129 13.2047C70.5769 13.061 70.5124 12.9259 70.4232 12.8076L70.4244 12.8088Z" fill="#D2D2D2"/>
<path d="M14.2137 0.198486L11.9693 3.18679H20.9463V12.1517H2.99232V3.18679H11.9693L9.7249 0.198486H2.99232C2.19871 0.198486 1.4376 0.513325 0.876431 1.07374C0.315262 1.63416 0 2.39424 0 3.18679L0 12.1517C0 12.9443 0.315262 13.7043 0.876431 14.2648C1.4376 14.8252 2.19871 15.14 2.99232 15.14H20.9463C21.7399 15.14 22.501 14.8252 23.0622 14.2648C23.6233 13.7043 23.9386 12.9443 23.9386 12.1517V3.18679C23.9386 2.39424 23.6233 1.63416 23.0622 1.07374C22.501 0.513325 21.7399 0.198486 20.9463 0.198486H14.2137Z" fill="#1AA86E"/>
<path d="M5.98474 6.1748H8.97707V9.16311H5.98474V6.1748Z" fill="#1AA86E"/>
<path d="M14.9617 6.1748H17.954V9.16311H14.9617V6.1748Z" fill="#1AA86E"/>
</svg>
