<svg width="35" height="35" viewBox="0 0 35 35" fill="none" xmlns="http://www.w3.org/2000/svg">
<path fill-rule="evenodd" clip-rule="evenodd" d="M5.25 35C2.3505 35 0 32.6452 0 29.7405V16.3044C0 14.8134 0.631688 13.3925 1.73794 12.3951L13.9879 1.35014C15.9845 -0.450046 19.0155 -0.450048 21.0121 1.35014L33.2621 12.3951C34.3683 13.3925 35 14.8134 35 16.3044V29.7405C35 32.6452 32.6495 35 29.75 35H5.25ZM32.375 16.3044V29.7405C32.375 31.1929 31.1997 32.3703 29.75 32.3703H24.5V22.7279C24.5 19.8231 22.1495 17.4684 19.25 17.4684H15.75C12.8505 17.4684 10.5 19.8231 10.5 22.7279V32.3703H5.25C3.80025 32.3703 2.625 31.1929 2.625 29.7405V16.3044C2.625 15.5589 2.94084 14.8485 3.49397 14.3497L15.744 3.30482C16.7423 2.40472 18.2577 2.40472 19.256 3.30481L31.506 14.3497C32.0592 14.8485 32.375 15.5589 32.375 16.3044ZM13.125 32.3703V22.7279C13.125 21.2755 14.3003 20.0981 15.75 20.0981H19.25C20.6997 20.0981 21.875 21.2755 21.875 22.7279V32.3703H13.125Z" fill="white"/>
</svg>
